<svg xmlns="http://www.w3.org/2000/svg" xmlns:xlink="http://www.w3.org/1999/xlink" viewBox="0 0 500 500"><defs><style>.cls-1{fill:#f9fbfc;}.cls-2{fill:#d1f5ff;}.cls-3{fill:#f6b381;}.cls-4{fill:#f6906b;}.cls-5{fill:url(#linear-gradient);}.cls-6{fill:url(#linear-gradient-2);}.cls-7{fill:url(#linear-gradient-3);}.cls-8{fill:url(#linear-gradient-4);}.cls-9{fill:url(#linear-gradient-5);}.cls-10{fill:#fff;}.cls-11{fill:#cfe3ff;}.cls-12{font-size:10.76px;fill:#606565;font-family:Montserrat-Regular, Montserrat Regular;letter-spacing:0.04em;}.cls-13{letter-spacing:0.04em;}.cls-14{letter-spacing:0.04em;}.cls-15{fill:url(#linear-gradient-6);}.cls-16{fill:#0cf;}.cls-17{fill:#e3e3e6;}.cls-18{fill:#f1e8e1;}.cls-19{fill:#ddd3d2;}.cls-20{fill:#393c63;}.cls-21{fill:#2f2d4f;}</style><linearGradient id="linear-gradient" x1="41.95" y1="629.23" x2="345.94" y2="88.8" gradientUnits="userSpaceOnUse"><stop offset="0" stop-color="#7f5eff"/><stop offset="0.24" stop-color="#8665ff"/><stop offset="0.6" stop-color="#9978ff"/><stop offset="0.94" stop-color="#b391ff"/></linearGradient><linearGradient id="linear-gradient-2" x1="276.4" y1="235.92" x2="180.4" y2="77.92" xlink:href="#linear-gradient"/><linearGradient id="linear-gradient-3" x1="265.15" y1="331.2" x2="244.74" y2="399.55" gradientTransform="translate(579.94 61.78) rotate(81.31)" gradientUnits="userSpaceOnUse"><stop offset="0" stop-color="#9a79ff"/><stop offset="0.94" stop-color="#b391ff"/></linearGradient><linearGradient id="linear-gradient-4" x1="261.45" y1="132.78" x2="265.66" y2="128.56" xlink:href="#linear-gradient"/><linearGradient id="linear-gradient-5" x1="275.97" y1="158.11" x2="219.97" y2="251.45" gradientUnits="userSpaceOnUse"><stop offset="0" stop-color="#9a79ff"/><stop offset="0.34" stop-color="#ba76e8"/><stop offset="0.94" stop-color="#fb6fb9"/></linearGradient><linearGradient id="linear-gradient-6" x1="262.39" y1="276.8" x2="228.39" y2="327.47" xlink:href="#linear-gradient-5"/></defs><title>LoginManos</title><g id="BACKGROUND"><rect class="cls-1" width="500" height="500"/><path class="cls-2" d="M251.15,59.5c1.57,40.52,18.45,79.39,42.35,112.15C309,192.86,327.63,212,349.87,226c48.13,30.16,112.46,36,149,79.51l1.18,1.44V0H261.11A148.11,148.11,0,0,0,251.15,59.5Z"/><path class="cls-2" d="M303.2,497.38c-3.27-4.75-6.69-9.49-11.1-13.22-11.77-9.93-28.36-11.06-42.85-16.25-24-8.6-42.24-28.47-57-49.28S164.84,375.2,146.94,357a149.51,149.51,0,0,0-51.25-33.54c-30.07-12-63.5-15.48-95.69-12V500H305C304.39,499.12,303.8,498.24,303.2,497.38Z"/><path class="cls-2" d="M0,0V97a150.9,150.9,0,0,1,51.35-35.6c25.37-10.6,53.29-14.09,78.59-24.87,16.88-7.19,39.27-20,52.24-36.56Z"/></g><g id="OBJECTS"><path class="cls-3" d="M110.71,403.9l8.85-68.42a27.54,27.54,0,0,1,10.6-18.37l43.17-32.94,23.39,74.32-53.67,59.86Z"/><path class="cls-4" d="M172.29,307.17,142,332.31a3.46,3.46,0,0,0-1.16,3.55l10.77,41.94a3.47,3.47,0,0,0,6.1,1.29l21.61-27.56a3.48,3.48,0,0,0,.15-4.09l-2.09-39.52A3.49,3.49,0,0,0,172.29,307.17Z"/><path class="cls-3" d="M392.14,349.9l-8.85-68.42a27.55,27.55,0,0,0-10.61-18.37l-43.16-32.94-23.4,74.32,53.67,59.86Z"/><path class="cls-4" d="M330.55,253.17l30.28,25.14a3.48,3.48,0,0,1,1.17,3.55L351.23,323.8a3.48,3.48,0,0,1-6.11,1.29l-21.61-27.56a3.48,3.48,0,0,1-.15-4.09l2.09-39.52A3.49,3.49,0,0,1,330.55,253.17Z"/><rect class="cls-5" x="174.26" y="113.41" width="159.48" height="277.67" rx="25.44"/><path class="cls-6" d="M329.19,124.33a25.42,25.42,0,0,0-20.89-10.92H199.7a25.44,25.44,0,0,0-25.44,25.44V266.29C264.19,220.27,308.89,160.57,329.19,124.33Z"/><rect class="cls-1" x="183.12" y="157.08" width="141.76" height="194.61" rx="2.55"/><circle class="cls-7" cx="254" cy="368.54" r="8.31" transform="translate(-148.68 563.95) rotate(-81.31)"/><path class="cls-8" d="M268,143.31H240a3.08,3.08,0,0,1-3.09-3.08h0a3.09,3.09,0,0,1,3.09-3.09h28a3.09,3.09,0,0,1,3.09,3.09h0A3.08,3.08,0,0,1,268,143.31Z"/><circle class="cls-9" cx="254.85" cy="193.31" r="19.73"/><path class="cls-10" d="M262.61,187.72a7.33,7.33,0,1,1-7.33-7.33A7.33,7.33,0,0,1,262.61,187.72Z"/><path class="cls-10" d="M243,209a12,12,0,0,1,24,0s-5.51,4.68-12.17,4.8S243,209,243,209Z"/><rect class="cls-11" x="200.84" y="227.24" width="111.12" height="15.54" rx="2.75"/><text class="cls-12" transform="translate(208.34 239.01)">N<tspan class="cls-13" x="7.51" y="0">A</tspan><tspan class="cls-14" x="14.49" y="0">ME</tspan></text><rect class="cls-11" x="200.84" y="249.12" width="111.12" height="15.54" rx="2.75"/><text class="cls-12" transform="translate(208.34 262.91)">**********</text><rect class="cls-15" x="227.42" y="286.06" width="47.21" height="15.35" rx="6.52"/><rect class="cls-16" x="227.42" y="312.06" width="47.21" height="15.35" rx="6.52"/><path class="cls-3" d="M343.69,393.69,338.42,377a2.86,2.86,0,0,0-1.65-1.78L317,367.31c-18.15-7.26-17.49-35.69-17-43.29a2.8,2.8,0,0,0-1.59-2.73l-20.74-10.11c-7.07-3.44-12.86-12.7-12.86-20.57v-.05c0-8.23,6.34-12.69,14.09-9.89l52.87,19.06a2.85,2.85,0,0,1,1.47,1.22L361,347.49a2.83,2.83,0,0,0,3.33,1.24L387.78,341a2.83,2.83,0,0,1,3.66,2.08l10.94,49.15a2.85,2.85,0,0,1-2.78,3.46H346.4A2.85,2.85,0,0,1,343.69,393.69Z"/><path class="cls-4" d="M342.59,362.7c-38.53-6.88-28.9-46.79-28.9-46.79l-48.35-21.22c1.52,6.76,6.5,13.63,12.37,16.49l20.74,10.11h0l1.75.85s-.09.81-.18,2.19c0,.11,0,.23,0,.35s0,.42,0,.63,0,.21,0,.32c0,.34,0,.69,0,1.07a2.91,2.91,0,0,0,0,.3c0,.29,0,.58,0,.89v.46c0,.28,0,.56,0,.85v1.4c0,.2,0,.39,0,.59s0,.62,0,.94,0,.39,0,.59,0,.7,0,1.06c0,.18,0,.36,0,.54,0,.54.07,1.09.11,1.65,0,0,0,0,0,.08,0,.53.09,1.08.14,1.63l.06.55c0,.39.08.79.13,1.2l.09.67.15,1.12.12.71c.06.38.12.75.19,1.13l.12.7c.08.4.16.8.25,1.19,0,.22.08.43.13.65.11.49.23,1,.36,1.48,0,.11.05.23.08.35.16.6.33,1.21.51,1.81l.16.49c.14.44.28.87.43,1.3.07.22.15.43.23.65s.28.75.43,1.12.19.46.28.68.31.71.47,1.06.21.45.32.67.35.7.54,1.05.21.41.33.61c.22.39.45.78.68,1.15.1.15.18.3.28.45.33.52.68,1,1.05,1.51.07.1.15.19.23.29q.45.59.93,1.14l.43.47q.4.45.84.87l.52.49c.28.26.57.51.86.75l.58.46c.31.24.62.46,1,.69l.6.4c.36.23.73.44,1.11.65.18.1.36.21.55.3a19.31,19.31,0,0,0,1.78.82l6.45,2.58.7.28,3.75,1.5,2.44,1,7.67,3.06,5.67,18a2.85,2.85,0,0,0,2.71,2H359l-7.5-31.6Z"/><path class="cls-17" d="M273.18,290.17l1.79-3.48a4,4,0,0,1,4.86-1.91l8.92,3.23a4,4,0,0,1,2.17,5.51l-2.57,5a3.94,3.94,0,0,1-5.5,1.61l-8.15-4.77A4,4,0,0,1,273.18,290.17Z"/><rect class="cls-18" x="331.8" y="385.33" width="78.45" height="22.71" rx="6.54" transform="translate(-57.69 63.18) rotate(-9.03)"/><rect class="cls-19" x="331.99" y="387.8" width="47.02" height="22.71" rx="7.8" transform="translate(-58.27 60.78) rotate(-9.03)"/><polygon class="cls-20" points="433 500 415.67 394.11 326.42 408.3 341.5 500 433 500"/><path class="cls-21" d="M396.06,500l-13.89-84.3a16.05,16.05,0,0,0-18.37-13.34l-37.38,5.94L341.5,500Z"/><path class="cls-3" d="M159.15,447.69l5.27-16.7a2.86,2.86,0,0,1,1.65-1.78l19.77-7.9c18.15-7.26,17.48-35.69,17-43.29a2.8,2.8,0,0,1,1.59-2.73l20.74-10.11c7.08-3.44,12.86-12.7,12.86-20.57v-.05c0-8.23-6.34-12.69-14.09-9.89L171,353.73a2.89,2.89,0,0,0-1.47,1.22l-27.73,46.54a2.82,2.82,0,0,1-3.33,1.24L115.07,395a2.84,2.84,0,0,0-3.67,2.08l-10.93,49.15a2.83,2.83,0,0,0,2.77,3.46h53.2A2.84,2.84,0,0,0,159.15,447.69Z"/><path class="cls-4" d="M160.25,416.7c38.54-6.88,28.9-46.79,28.9-46.79l48.36-21.22c-1.53,6.76-6.5,13.63-12.38,16.49l-20.74,10.11h0l-1.75.85s.09.81.18,2.19c0,.11,0,.23,0,.35s0,.42,0,.63,0,.21,0,.32c0,.34,0,.69.05,1.07,0,.09,0,.2,0,.3,0,.29,0,.58,0,.89v.46c0,.28,0,.56,0,.85v1.4c0,.2,0,.39,0,.59s0,.62,0,.94,0,.39,0,.59,0,.7-.05,1.06c0,.18,0,.36,0,.54,0,.54-.07,1.09-.11,1.65a.22.22,0,0,1,0,.08c0,.53-.08,1.08-.14,1.63,0,.18,0,.36-.06.55,0,.39-.08.79-.13,1.2l-.09.67-.15,1.12c0,.23-.07.47-.11.71s-.13.75-.19,1.13-.09.47-.13.7L201.5,399c-.05.22-.09.43-.14.65-.11.49-.23,1-.35,1.48l-.09.35c-.16.6-.33,1.21-.51,1.81l-.16.49c-.13.44-.27.87-.42,1.3l-.24.65c-.14.37-.28.75-.43,1.12s-.19.46-.28.68-.31.71-.47,1.06-.21.45-.32.67-.35.7-.54,1.05-.21.41-.33.61c-.21.39-.45.78-.68,1.15l-.27.45c-.34.52-.69,1-1.06,1.51-.07.1-.15.19-.23.29-.3.39-.6.77-.93,1.14l-.43.47c-.27.3-.55.59-.83.87s-.35.33-.53.49-.57.51-.86.75l-.58.46c-.3.24-.62.46-.94.69l-.6.4c-.36.23-.74.44-1.11.65l-.55.3c-.58.3-1.17.57-1.78.82l-6.46,2.58-.7.28-3.75,1.5-2.44,1-7.66,3.06-5.68,18a2.84,2.84,0,0,1-2.71,2H143.8l7.51-31.6Z"/><path class="cls-17" d="M229.66,344.17l-1.79-3.48a4,4,0,0,0-4.85-1.91L214.1,342a4,4,0,0,0-2.18,5.51l2.57,5a4,4,0,0,0,5.51,1.61l8.14-4.77A4,4,0,0,0,229.66,344.17Z"/><rect class="cls-18" x="92.6" y="439.33" width="78.45" height="22.71" rx="6.54" transform="translate(191.23 916.47) rotate(-170.97)"/><rect class="cls-19" x="123.83" y="441.8" width="47.02" height="22.71" rx="7.8" transform="translate(221.69 923.81) rotate(-170.97)"/><polygon class="cls-20" points="170.22 500 176.42 462.3 87.17 448.11 78.68 500 170.22 500"/><path class="cls-21" d="M170.22,500l6.2-37.7-37.37-5.94a16.06,16.06,0,0,0-18.38,13.34l-5,30.3Z"/></g></svg>